# xmcd
#
# Track frame offsets: 
#        150
#        16708
#        36482
#        66542
#        88113
#        101692
#        121010
#        136229
#        151012
#        171585
#
# Disc length: 2453 seconds
#
# Revision: 0
# Processed by: cddbd v1.5.2PL0 Copyright (c) Steve Scherf et al.
# Submitted via: ExactAudioCopy v1.3
#
DISCID=8009930a
DTITLE=Guy Verlinde and Mighty Gators - TEN
DYEAR=2018
DGENRE=Blues
TTITLE0=Bon Ton Roulet
TTITLE1=Pursuit Of Happyness
TTITLE2=Ain't No Sunshine
TTITLE3=No Time To Waste
TTITLE4=Words Are Overrated
TTITLE5=Love Light Shine
TTITLE6=Gator Bob
TTITLE7=Good Ain't Good Enough
TTITLE8=Shorten The Longin'
TTITLE9=Do That Boogie
EXTD=
EXTT0=
EXTT1=
EXTT2=
EXTT3=
EXTT4=
EXTT5=
EXTT6=
EXTT7=
EXTT8=
EXTT9=
PLAYORDER=
